<svg xmlns="http://www.w3.org/2000/svg" xmlns:xlink="http://www.w3.org/1999/xlink" xmlns:lucid="lucid" width="1331.75" height="1481"><g transform="translate(-188.25 -202)" lucid:page-tab-id="0_0"><path d="M189.23 210.5a8 8 0 0 1 8-8h1024a8 8 0 0 1 8 8v1464a8 8 0 0 1-8 8h-1024a8 8 0 0 1-8-8z" stroke="#333" fill="#fff"/><path d="M189.23 210.5a8 8 0 0 1 8-8h1024a8 8 0 0 1 8 8v44a8 8 0 0 1-8 8h-1024a8 8 0 0 1-8-8z" stroke="#333" fill="#bfbfbf"/><path d="M381.23 234.5a8 8 0 0 1 8-8h820a8 8 0 0 1 8 8v8a8 8 0 0 1-8 8h-820a8 8 0 0 1-8-8z" stroke="#333" fill="#fff"/><path d="M213.23 226.5l-12 12 12 12m-12-12h24M261.23 226.5l12 12-12 12m-12-12h24M321.23 238.5c-1.4-6.23-2.8-8.15-4.95-9.7-5.36-3.9-12.86-2.72-16.76 2.65-3.9 5.36-2.7 12.86 2.66 16.76 5.36 3.9 12.86 2.72 16.76-2.65" stroke="#333" stroke-width="6" fill="none"/><path d="M324.35 226.5v12h-12z" stroke="#333" stroke-width="1.5" fill="#333"/><path d="M345.23 238.5l12-12 12 12h-2.4v12h-6v-12h-7.2v12h-6v-12z" stroke="#333" fill="#333"/><path d="M189.23 320h1040v80h-1040z" stroke="#333" fill="#fff"/><path d="M921.38 335c-7.46 0-13.5 6.04-13.5 13.5v18c0 7.46 6.04 13.5 13.5 13.5h133c7.45 0 13.5-6.04 13.5-13.5v-18c0-7.46-6.05-13.5-13.5-13.5z" stroke="#333" fill="#f6f6f7"/><use xlink:href="#a" transform="matrix(1,0,0,1,917.875,339.5) translate(6.888888888888886 21.555555555555557)"/><use xlink:href="#b" transform="matrix(1,0,0,1,917.875,339.5) translate(87.77777777777777 21.555555555555557)"/><path d="M741.38 335c-7.46 0-13.5 6.04-13.5 13.5v18c0 7.46 6.04 13.5 13.5 13.5h133c7.45 0 13.5-6.04 13.5-13.5v-18c0-7.46-6.05-13.5-13.5-13.5z" stroke="#333" fill="#f6f6f7"/><use xlink:href="#c" transform="matrix(1,0,0,1,737.875,339.5) translate(9.333333333333329 21.555555555555557)"/><use xlink:href="#d" transform="matrix(1,0,0,1,737.875,339.5) translate(65.53086419753086 21.555555555555557)"/><path d="M561.38 335c-7.46 0-13.5 6.04-13.5 13.5v18c0 7.46 6.04 13.5 13.5 13.5h133c7.45 0 13.5-6.04 13.5-13.5v-18c0-7.46-6.05-13.5-13.5-13.5z" stroke="#333" fill="#979ea8"/><use xlink:href="#e" transform="matrix(1,0,0,1,557.875,339.5) translate(14.370370370370367 14.222222222222223)"/><use xlink:href="#f" transform="matrix(1,0,0,1,557.875,339.5) translate(73.48148148148148 14.222222222222223)"/><use xlink:href="#g" transform="matrix(1,0,0,1,557.875,339.5) translate(25.62962962962962 35.55555555555556)"/><path d="M200 420h1012.5v393.24H200zM381.38 335c-7.46 0-13.5 6.04-13.5 13.5v18c0 7.46 6.04 13.5 13.5 13.5h133c7.45 0 13.5-6.04 13.5-13.5v-18c0-7.46-6.05-13.5-13.5-13.5z" stroke="#333" fill="#f6f6f7"/><use xlink:href="#h" transform="matrix(1,0,0,1,377.875,339.5) translate(46.34567901234568 21.555555555555557)"/><path d="M205.97 1628a8 8 0 0 1 8-8h990.52a8 8 0 0 1 8 8v44a8 8 0 0 1-8 8H213.96a8 8 0 0 1-8-8z" fill="none"/><use xlink:href="#i" transform="matrix(1,0,0,1,205.96803947089927,1620) translate(458.575 33.6)"/><use xlink:href="#j" transform="matrix(1,0,0,1,205.96803947089927,1620) translate(515.475 33.6)"/><path d="M1280 268a8 8 0 0 1 8-8h224a8 8 0 0 1 8 8v44a8 8 0 0 1-8 8h-224a8 8 0 0 1-8-8z" fill="none"/><use xlink:href="#k" transform="matrix(1,0,0,1,1280,260) translate(2.375 14.4)"/><use xlink:href="#l" transform="matrix(1,0,0,1,1280,260) translate(77.325 14.4)"/><use xlink:href="#m" transform="matrix(1,0,0,1,1280,260) translate(154.675 14.4)"/><use xlink:href="#n" transform="matrix(1,0,0,1,1280,260) translate(209.675 14.4)"/><use xlink:href="#o" transform="matrix(1,0,0,1,1280,260) translate(227.625 14.4)"/><use xlink:href="#p" transform="matrix(1,0,0,1,1280,260) translate(4.824999999999989 36)"/><use xlink:href="#q" transform="matrix(1,0,0,1,1280,260) translate(74.375 36)"/><use xlink:href="#r" transform="matrix(1,0,0,1,1280,260) translate(118.275 36)"/><use xlink:href="#s" transform="matrix(1,0,0,1,1280,260) translate(138.275 36)"/><use xlink:href="#t" transform="matrix(1,0,0,1,1280,260) translate(205.175 36)"/><use xlink:href="#u" transform="matrix(1,0,0,1,1280,260) translate(70.575 57.6)"/><use xlink:href="#n" transform="matrix(1,0,0,1,1280,260) translate(84.525 57.6)"/><use xlink:href="#v" transform="matrix(1,0,0,1,1280,260) translate(102.475 57.6)"/><path d="M188.75 260h1040.48v60H188.75z" stroke="#333" fill="#fff"/><use xlink:href="#w" transform="matrix(1,0,0,1,193.75,265) translate(410.75 30.025)"/><use xlink:href="#x" transform="matrix(1,0,0,1,193.75,265) translate(468.55 30.025)"/><use xlink:href="#y" transform="matrix(1,0,0,1,193.75,265) translate(541.4 30.025)"/><path d="M205.97 438a8 8 0 0 1 8-8H292a8 8 0 0 1 8 8v51.17a8 8 0 0 1-8 8h-78.03a8 8 0 0 1-8-8z" stroke="#333" fill="#fff"/><path d="M225.98 497.17c0-14.92 12.1-27 27-27 14.92 0 27 12.08 27 27zm41-43.8c0 7.73-6.26 14-14 14-7.73 0-14-6.27-14-14 0-7.74 6.27-14 14-14 7.74 0 14 6.26 14 14z" stroke="#333" fill="#bfbfbf"/><path d="M307.88 438a8 8 0 0 1 8-8H672a8 8 0 0 1 8 8v14a8 8 0 0 1-8 8H315.87a8 8 0 0 1-8-8z" fill="none"/><use xlink:href="#z" transform="matrix(1,0,0,1,307.875,430) translate(0 18.6)"/><use xlink:href="#A" transform="matrix(1,0,0,1,307.875,430) translate(54.85 18.6)"/><use xlink:href="#B" transform="matrix(1,0,0,1,307.875,430) translate(69.85 18.6)"/><path d="M307.88 475.17a8 8 0 0 1 8-8H672a8 8 0 0 1 8 8v14a8 8 0 0 1-8 8H315.87a8 8 0 0 1-8-8z" fill="none"/><g><use xlink:href="#C" transform="matrix(1,0,0,1,307.875,467.1656860922148) translate(0 17.666666666666668)"/><use xlink:href="#D" transform="matrix(1,0,0,1,307.875,467.1656860922148) translate(42.92592592592593 17.666666666666668)"/></g><path d="M207.88 504.33H1200V800H207.87z" stroke="#333" fill="#fff"/><g><use xlink:href="#z" transform="matrix(1,0,0,1,212.875,509.3313721844296) translate(447.6 148.4625)"/><use xlink:href="#E" transform="matrix(1,0,0,1,212.875,509.3313721844296) translate(502.45000000000005 148.4625)"/></g><path d="M700 430h500v67.17H700z" stroke="#333" fill="#fff"/><g><use xlink:href="#F" transform="matrix(1,0,0,1,705,435) translate(193.55 32.525)"/><use xlink:href="#G" transform="matrix(1,0,0,1,705,435) translate(258.5 32.525)"/></g><path d="M200 825h1012.5v795H200z" stroke="#333" fill="#f6f6f7"/><path d="M205.97 843a8 8 0 0 1 8-8H292a8 8 0 0 1 8 8v51.17a8 8 0 0 1-8 8h-78.03a8 8 0 0 1-8-8z" stroke="#333" fill="#fff"/><path d="M225.98 902.17c0-14.92 12.1-27 27-27 14.92 0 27 12.08 27 27zm41-43.8c0 7.73-6.26 14-14 14-7.73 0-14-6.27-14-14 0-7.74 6.27-14 14-14 7.74 0 14 6.26 14 14z" stroke="#333" fill="#bfbfbf"/><path d="M307.88 843a8 8 0 0 1 8-8H672a8 8 0 0 1 8 8v14a8 8 0 0 1-8 8H315.87a8 8 0 0 1-8-8z" fill="none"/><g><use xlink:href="#z" transform="matrix(1,0,0,1,307.875,835) translate(0 18.6)"/><use xlink:href="#H" transform="matrix(1,0,0,1,307.875,835) translate(54.85 18.6)"/><use xlink:href="#B" transform="matrix(1,0,0,1,307.875,835) translate(69.85 18.6)"/></g><path d="M307.88 880.17a8 8 0 0 1 8-8H672a8 8 0 0 1 8 8v14a8 8 0 0 1-8 8H315.87a8 8 0 0 1-8-8z" fill="none"/><g><use xlink:href="#C" transform="matrix(1,0,0,1,307.875,872.1656860922149) translate(0 17.666666666666668)"/><use xlink:href="#D" transform="matrix(1,0,0,1,307.875,872.1656860922149) translate(42.92592592592593 17.666666666666668)"/></g><path d="M207.88 909.33H1200V1600H207.87z" stroke="#333" fill="#fff"/><g><use xlink:href="#z" transform="matrix(1,0,0,1,212.87499999999994,914.3313721844297) translate(447.6 344.259375)"/><use xlink:href="#E" transform="matrix(1,0,0,1,212.87499999999994,914.3313721844297) translate(502.45000000000005 344.259375)"/></g><path d="M700 835h500v67.17H700z" stroke="#333" fill="#fff"/><g><use xlink:href="#F" transform="matrix(1,0,0,1,705,840) translate(193.55 32.525)"/><use xlink:href="#G" transform="matrix(1,0,0,1,705,840) translate(258.5 32.525)"/></g><path d="M207.88 909.33H1200V1100H207.87z" stroke="#333" fill="#fff"/><g><use xlink:href="#z" transform="matrix(1,0,0,1,212.875,914.3313721844297) translate(439.1 93.5875)"/><use xlink:href="#I" transform="matrix(1,0,0,1,212.875,914.3313721844297) translate(493.95000000000005 93.5875)"/></g><defs><path fill="#333" d="M233-177c-1 41-23 64-60 70L243 0h-38l-65-103H63V0H30v-248c88 3 205-21 203 71zM63-129c60-2 137 13 137-47 0-61-80-42-137-45v92" id="J"/><path fill="#333" d="M100-194c63 0 86 42 84 106H49c0 40 14 67 53 68 26 1 43-12 49-29l28 8c-11 28-37 45-77 45C44 4 14-33 15-96c1-61 26-98 85-98zm52 81c6-60-76-77-97-28-3 7-6 17-6 28h103" id="K"/><path fill="#333" d="M135-143c-3-34-86-38-87 0 15 53 115 12 119 90S17 21 10-45l28-5c4 36 97 45 98 0-10-56-113-15-118-90-4-57 82-63 122-42 12 7 21 19 24 35" id="L"/><path fill="#333" d="M141-36C126-15 110 5 73 4 37 3 15-17 15-53c-1-64 63-63 125-63 3-35-9-54-41-54-24 1-41 7-42 31l-33-3c5-37 33-52 76-52 45 0 72 20 72 64v82c-1 20 7 32 28 27v20c-31 9-61-2-59-35zM48-53c0 20 12 33 32 33 41-3 63-29 60-74-43 2-92-5-92 41" id="M"/><path fill="#333" d="M114-163C36-179 61-72 57 0H25l-1-190h30c1 12-1 29 2 39 6-27 23-49 58-41v29" id="N"/><path fill="#333" d="M96-169c-40 0-48 33-48 73s9 75 48 75c24 0 41-14 43-38l32 2c-6 37-31 61-74 61-59 0-76-41-82-99-10-93 101-131 147-64 4 7 5 14 7 22l-32 3c-4-21-16-35-41-35" id="O"/><path fill="#333" d="M106-169C34-169 62-67 57 0H25v-261h32l-1 103c12-21 28-36 61-36 89 0 53 116 60 194h-32v-121c2-32-8-49-39-48" id="P"/><g id="a"><use transform="matrix(0.04938271604938272,0,0,0.04938271604938272,0,0)" xlink:href="#J"/><use transform="matrix(0.04938271604938272,0,0,0.04938271604938272,12.790123456790125,0)" xlink:href="#K"/><use transform="matrix(0.04938271604938272,0,0,0.04938271604938272,22.66666666666667,0)" xlink:href="#L"/><use transform="matrix(0.04938271604938272,0,0,0.04938271604938272,31.555555555555557,0)" xlink:href="#K"/><use transform="matrix(0.04938271604938272,0,0,0.04938271604938272,41.4320987654321,0)" xlink:href="#M"/><use transform="matrix(0.04938271604938272,0,0,0.04938271604938272,51.308641975308646,0)" xlink:href="#N"/><use transform="matrix(0.04938271604938272,0,0,0.04938271604938272,57.18518518518519,0)" xlink:href="#O"/><use transform="matrix(0.04938271604938272,0,0,0.04938271604938272,66.07407407407408,0)" xlink:href="#P"/></g><path fill="#333" d="M197 0v-115H63V0H30v-248h33v105h134v-105h34V0h-34" id="Q"/><path fill="#333" d="M24 0v-261h32V0H24" id="R"/><path fill="#333" d="M115-194c55 1 70 41 70 98S169 2 115 4C84 4 66-9 55-30l1 105H24l-1-265h31l2 30c10-21 28-34 59-34zm-8 174c40 0 45-34 45-75s-6-73-45-74c-42 0-51 32-51 76 0 43 10 73 51 73" id="S"/><g id="b"><use transform="matrix(0.04938271604938272,0,0,0.04938271604938272,0,0)" xlink:href="#Q"/><use transform="matrix(0.04938271604938272,0,0,0.04938271604938272,12.790123456790125,0)" xlink:href="#K"/><use transform="matrix(0.04938271604938272,0,0,0.04938271604938272,22.66666666666667,0)" xlink:href="#R"/><use transform="matrix(0.04938271604938272,0,0,0.04938271604938272,26.567901234567902,0)" xlink:href="#S"/><use transform="matrix(0.04938271604938272,0,0,0.04938271604938272,36.44444444444445,0)" xlink:href="#L"/></g><path fill="#333" d="M140-251c81 0 123 46 123 126C263-46 219 4 140 4 59 4 17-45 17-125s42-126 123-126zm0 227c63 0 89-41 89-101s-29-99-89-99c-61 0-89 39-89 99S79-25 140-24" id="T"/><path fill="#333" d="M117-194c89-4 53 116 60 194h-32v-121c0-31-8-49-39-48C34-167 62-67 57 0H25l-1-190h30c1 10-1 24 2 32 11-22 29-35 61-36" id="U"/><path fill="#333" d="M24-231v-30h32v30H24zM24 0v-190h32V0H24" id="V"/><g id="c"><use transform="matrix(0.04938271604938272,0,0,0.04938271604938272,0,0)" xlink:href="#T"/><use transform="matrix(0.04938271604938272,0,0,0.04938271604938272,13.827160493827162,0)" xlink:href="#U"/><use transform="matrix(0.04938271604938272,0,0,0.04938271604938272,23.703703703703706,0)" xlink:href="#R"/><use transform="matrix(0.04938271604938272,0,0,0.04938271604938272,27.60493827160494,0)" xlink:href="#V"/><use transform="matrix(0.04938271604938272,0,0,0.04938271604938272,31.506172839506174,0)" xlink:href="#U"/><use transform="matrix(0.04938271604938272,0,0,0.04938271604938272,41.38271604938272,0)" xlink:href="#K"/></g><path fill="#333" d="M185-189c-5-48-123-54-124 2 14 75 158 14 163 119 3 78-121 87-175 55-17-10-28-26-33-46l33-7c5 56 141 63 141-1 0-78-155-14-162-118-5-82 145-84 179-34 5 7 8 16 11 25" id="W"/><path fill="#333" d="M100-194c62-1 85 37 85 99 1 63-27 99-86 99S16-35 15-95c0-66 28-99 85-99zM99-20c44 1 53-31 53-75 0-43-8-75-51-75s-53 32-53 75 10 74 51 75" id="X"/><path fill="#333" d="M84 4C-5 8 30-112 23-190h32v120c0 31 7 50 39 49 72-2 45-101 50-169h31l1 190h-30c-1-10 1-25-2-33-11 22-28 36-60 37" id="Y"/><g id="d"><use transform="matrix(0.04938271604938272,0,0,0.04938271604938272,0,0)" xlink:href="#W"/><use transform="matrix(0.04938271604938272,0,0,0.04938271604938272,11.851851851851853,0)" xlink:href="#X"/><use transform="matrix(0.04938271604938272,0,0,0.04938271604938272,21.7283950617284,0)" xlink:href="#Y"/><use transform="matrix(0.04938271604938272,0,0,0.04938271604938272,31.60493827160494,0)" xlink:href="#N"/><use transform="matrix(0.04938271604938272,0,0,0.04938271604938272,37.48148148148149,0)" xlink:href="#O"/><use transform="matrix(0.04938271604938272,0,0,0.04938271604938272,46.37037037037038,0)" xlink:href="#K"/><use transform="matrix(0.04938271604938272,0,0,0.04938271604938272,56.24691358024693,0)" xlink:href="#L"/></g><path fill="#333" d="M212-179c-10-28-35-45-73-45-59 0-87 40-87 99 0 60 29 101 89 101 43 0 62-24 78-52l27 14C228-24 195 4 139 4 59 4 22-46 18-125c-6-104 99-153 187-111 19 9 31 26 39 46" id="Z"/><path fill="#333" d="M59-47c-2 24 18 29 38 22v24C64 9 27 4 27-40v-127H5v-23h24l9-43h21v43h35v23H59v120" id="aa"/><g id="e"><use transform="matrix(0.04938271604938272,0,0,0.04938271604938272,0,0)" xlink:href="#Z"/><use transform="matrix(0.04938271604938272,0,0,0.04938271604938272,12.790123456790125,0)" xlink:href="#X"/><use transform="matrix(0.04938271604938272,0,0,0.04938271604938272,22.66666666666667,0)" xlink:href="#R"/><use transform="matrix(0.04938271604938272,0,0,0.04938271604938272,26.567901234567902,0)" xlink:href="#R"/><use transform="matrix(0.04938271604938272,0,0,0.04938271604938272,30.46913580246914,0)" xlink:href="#K"/><use transform="matrix(0.04938271604938272,0,0,0.04938271604938272,40.345679012345684,0)" xlink:href="#O"/><use transform="matrix(0.04938271604938272,0,0,0.04938271604938272,49.23456790123457,0)" xlink:href="#aa"/></g><path fill="#333" d="M63-220v92h138v28H63V0H30v-248h175v28H63" id="ab"/><path fill="#333" d="M210-169c-67 3-38 105-44 169h-31v-121c0-29-5-50-35-48C34-165 62-65 56 0H25l-1-190h30c1 10-1 24 2 32 10-44 99-50 107 0 11-21 27-35 58-36 85-2 47 119 55 194h-31v-121c0-29-5-49-35-48" id="ac"/><path fill="#333" d="M179-190L93 31C79 59 56 82 12 73V49c39 6 53-20 64-50L1-190h34L92-34l54-156h33" id="ad"/><g id="f"><use transform="matrix(0.04938271604938272,0,0,0.04938271604938272,0,0)" xlink:href="#ab"/><use transform="matrix(0.04938271604938272,0,0,0.04938271604938272,10.814814814814815,0)" xlink:href="#M"/><use transform="matrix(0.04938271604938272,0,0,0.04938271604938272,20.69135802469136,0)" xlink:href="#ac"/><use transform="matrix(0.04938271604938272,0,0,0.04938271604938272,35.4567901234568,0)" xlink:href="#V"/><use transform="matrix(0.04938271604938272,0,0,0.04938271604938272,39.35802469135803,0)" xlink:href="#R"/><use transform="matrix(0.04938271604938272,0,0,0.04938271604938272,43.25925925925927,0)" xlink:href="#ad"/></g><path fill="#333" d="M33 0v-248h34V0H33" id="ae"/><path fill="#333" d="M101-234c-31-9-42 10-38 44h38v23H63V0H32v-167H5v-23h27c-7-52 17-82 69-68v24" id="af"/><g id="g"><use transform="matrix(0.04938271604938272,0,0,0.04938271604938272,0,0)" xlink:href="#ae"/><use transform="matrix(0.04938271604938272,0,0,0.04938271604938272,4.938271604938272,0)" xlink:href="#U"/><use transform="matrix(0.04938271604938272,0,0,0.04938271604938272,14.814814814814817,0)" xlink:href="#af"/><use transform="matrix(0.04938271604938272,0,0,0.04938271604938272,19.75308641975309,0)" xlink:href="#X"/><use transform="matrix(0.04938271604938272,0,0,0.04938271604938272,29.629629629629633,0)" xlink:href="#N"/><use transform="matrix(0.04938271604938272,0,0,0.04938271604938272,35.50617283950618,0)" xlink:href="#ac"/><use transform="matrix(0.04938271604938272,0,0,0.04938271604938272,50.27160493827161,0)" xlink:href="#M"/><use transform="matrix(0.04938271604938272,0,0,0.04938271604938272,60.14814814814815,0)" xlink:href="#aa"/><use transform="matrix(0.04938271604938272,0,0,0.04938271604938272,65.08641975308643,0)" xlink:href="#V"/><use transform="matrix(0.04938271604938272,0,0,0.04938271604938272,68.98765432098767,0)" xlink:href="#X"/><use transform="matrix(0.04938271604938272,0,0,0.04938271604938272,78.86419753086422,0)" xlink:href="#U"/></g><g id="h"><use transform="matrix(0.04938271604938272,0,0,0.04938271604938272,0,0)" xlink:href="#Q"/><use transform="matrix(0.04938271604938272,0,0,0.04938271604938272,12.790123456790125,0)" xlink:href="#X"/><use transform="matrix(0.04938271604938272,0,0,0.04938271604938272,22.66666666666667,0)" xlink:href="#ac"/><use transform="matrix(0.04938271604938272,0,0,0.04938271604938272,37.4320987654321,0)" xlink:href="#K"/></g><path fill="#666" d="M63-220v92h138v28H63V0H30v-248h175v28H63" id="ag"/><path fill="#666" d="M100-194c62-1 85 37 85 99 1 63-27 99-86 99S16-35 15-95c0-66 28-99 85-99zM99-20c44 1 53-31 53-75 0-43-8-75-51-75s-53 32-53 75 10 74 51 75" id="ah"/><path fill="#666" d="M59-47c-2 24 18 29 38 22v24C64 9 27 4 27-40v-127H5v-23h24l9-43h21v43h35v23H59v120" id="ai"/><path fill="#666" d="M100-194c63 0 86 42 84 106H49c0 40 14 67 53 68 26 1 43-12 49-29l28 8c-11 28-37 45-77 45C44 4 14-33 15-96c1-61 26-98 85-98zm52 81c6-60-76-77-97-28-3 7-6 17-6 28h103" id="aj"/><path fill="#666" d="M114-163C36-179 61-72 57 0H25l-1-190h30c1 12-1 29 2 39 6-27 23-49 58-41v29" id="ak"/><g id="i"><use transform="matrix(0.05,0,0,0.05,0,0)" xlink:href="#ag"/><use transform="matrix(0.05,0,0,0.05,10.950000000000001,0)" xlink:href="#ah"/><use transform="matrix(0.05,0,0,0.05,20.950000000000003,0)" xlink:href="#ah"/><use transform="matrix(0.05,0,0,0.05,30.950000000000003,0)" xlink:href="#ai"/><use transform="matrix(0.05,0,0,0.05,35.95,0)" xlink:href="#aj"/><use transform="matrix(0.05,0,0,0.05,45.95,0)" xlink:href="#ak"/></g><path fill="#666" d="M127-220V0H93v-220H8v-28h204v28h-85" id="al"/><path fill="#666" d="M141 0L90-78 38 0H4l68-98-65-92h35l48 74 47-74h35l-64 92 68 98h-35" id="am"/><g id="j"><use transform="matrix(0.05,0,0,0.05,0,0)" xlink:href="#al"/><use transform="matrix(0.05,0,0,0.05,8.950000000000001,0)" xlink:href="#aj"/><use transform="matrix(0.05,0,0,0.05,18.950000000000003,0)" xlink:href="#am"/><use transform="matrix(0.05,0,0,0.05,27.950000000000003,0)" xlink:href="#ai"/></g><path fill="#666" d="M185-189c-5-48-123-54-124 2 14 75 158 14 163 119 3 78-121 87-175 55-17-10-28-26-33-46l33-7c5 56 141 63 141-1 0-78-155-14-162-118-5-82 145-84 179-34 5 7 8 16 11 25" id="an"/><path fill="#666" d="M24 0v-261h32V0H24" id="ao"/><path fill="#666" d="M96-169c-40 0-48 33-48 73s9 75 48 75c24 0 41-14 43-38l32 2c-6 37-31 61-74 61-59 0-76-41-82-99-10-93 101-131 147-64 4 7 5 14 7 22l-32 3c-4-21-16-35-41-35" id="ap"/><path fill="#666" d="M85-194c31 0 48 13 60 33l-1-100h32l1 261h-30c-2-10 0-23-3-31C134-8 116 4 85 4 32 4 16-35 15-94c0-66 23-100 70-100zm9 24c-40 0-46 34-46 75 0 40 6 74 45 74 42 0 51-32 51-76 0-42-9-74-50-73" id="aq"/><g id="k"><use transform="matrix(0.05,0,0,0.05,0,0)" xlink:href="#an"/><use transform="matrix(0.05,0,0,0.05,12,0)" xlink:href="#aj"/><use transform="matrix(0.05,0,0,0.05,22,0)" xlink:href="#ao"/><use transform="matrix(0.05,0,0,0.05,25.950000000000003,0)" xlink:href="#aj"/><use transform="matrix(0.05,0,0,0.05,35.95,0)" xlink:href="#ap"/><use transform="matrix(0.05,0,0,0.05,44.95,0)" xlink:href="#ai"/><use transform="matrix(0.05,0,0,0.05,49.95,0)" xlink:href="#aj"/><use transform="matrix(0.05,0,0,0.05,59.95,0)" xlink:href="#aq"/></g><path fill="#666" d="M24-231v-30h32v30H24zM24 0v-190h32V0H24" id="ar"/><path fill="#666" d="M117-194c89-4 53 116 60 194h-32v-121c0-31-8-49-39-48C34-167 62-67 57 0H25l-1-190h30c1 10-1 24 2 32 11-22 29-35 61-36" id="as"/><path fill="#666" d="M47-170H22l-4-78h33" id="at"/><path fill="#666" d="M135-143c-3-34-86-38-87 0 15 53 115 12 119 90S17 21 10-45l28-5c4 36 97 45 98 0-10-56-113-15-118-90-4-57 82-63 122-42 12 7 21 19 24 35" id="au"/><g id="l"><use transform="matrix(0.05,0,0,0.05,0,0)" xlink:href="#an"/><use transform="matrix(0.05,0,0,0.05,12,0)" xlink:href="#aj"/><use transform="matrix(0.05,0,0,0.05,22,0)" xlink:href="#ap"/><use transform="matrix(0.05,0,0,0.05,31,0)" xlink:href="#ai"/><use transform="matrix(0.05,0,0,0.05,36,0)" xlink:href="#ar"/><use transform="matrix(0.05,0,0,0.05,39.95,0)" xlink:href="#ah"/><use transform="matrix(0.05,0,0,0.05,49.95,0)" xlink:href="#as"/><use transform="matrix(0.05,0,0,0.05,59.95,0)" xlink:href="#at"/><use transform="matrix(0.05,0,0,0.05,63.35,0)" xlink:href="#au"/></g><path fill="#666" d="M115-194c53 0 69 39 70 98 0 66-23 100-70 100C84 3 66-7 56-30L54 0H23l1-261h32v101c10-23 28-34 59-34zm-8 174c40 0 45-34 45-75 0-40-5-75-45-74-42 0-51 32-51 76 0 43 10 73 51 73" id="av"/><path fill="#666" d="M84 4C-5 8 30-112 23-190h32v120c0 31 7 50 39 49 72-2 45-101 50-169h31l1 190h-30c-1-10 1-25-2-33-11 22-28 36-60 37" id="aw"/><g id="m"><use transform="matrix(0.05,0,0,0.05,0,0)" xlink:href="#av"/><use transform="matrix(0.05,0,0,0.05,10,0)" xlink:href="#aw"/><use transform="matrix(0.05,0,0,0.05,20,0)" xlink:href="#ai"/><use transform="matrix(0.05,0,0,0.05,25,0)" xlink:href="#ai"/><use transform="matrix(0.05,0,0,0.05,30,0)" xlink:href="#ah"/><use transform="matrix(0.05,0,0,0.05,40,0)" xlink:href="#as"/></g><g id="n"><use transform="matrix(0.05,0,0,0.05,0,0)" xlink:href="#ar"/><use transform="matrix(0.05,0,0,0.05,3.95,0)" xlink:href="#au"/></g><path fill="#666" d="M141-36C126-15 110 5 73 4 37 3 15-17 15-53c-1-64 63-63 125-63 3-35-9-54-41-54-24 1-41 7-42 31l-33-3c5-37 33-52 76-52 45 0 72 20 72 64v82c-1 20 7 32 28 27v20c-31 9-61-2-59-35zM48-53c0 20 12 33 32 33 41-3 63-29 60-74-43 2-92-5-92 41" id="ax"/><use transform="matrix(0.05,0,0,0.05,0,0)" xlink:href="#ax" id="o"/><path fill="#666" d="M101-234c-31-9-42 10-38 44h38v23H63V0H32v-167H5v-23h27c-7-52 17-82 69-68v24" id="ay"/><g id="p"><use transform="matrix(0.05,0,0,0.05,0,0)" xlink:href="#aq"/><use transform="matrix(0.05,0,0,0.05,10,0)" xlink:href="#ar"/><use transform="matrix(0.05,0,0,0.05,13.949999999999998,0)" xlink:href="#ay"/><use transform="matrix(0.05,0,0,0.05,18.6,0)" xlink:href="#ay"/><use transform="matrix(0.05,0,0,0.05,23.6,0)" xlink:href="#aj"/><use transform="matrix(0.05,0,0,0.05,33.6,0)" xlink:href="#ak"/><use transform="matrix(0.05,0,0,0.05,39.550000000000004,0)" xlink:href="#aj"/><use transform="matrix(0.05,0,0,0.05,49.550000000000004,0)" xlink:href="#as"/><use transform="matrix(0.05,0,0,0.05,59.550000000000004,0)" xlink:href="#ai"/></g><g id="q"><use transform="matrix(0.05,0,0,0.05,0,0)" xlink:href="#ap"/><use transform="matrix(0.05,0,0,0.05,9,0)" xlink:href="#ah"/><use transform="matrix(0.05,0,0,0.05,19,0)" xlink:href="#ao"/><use transform="matrix(0.05,0,0,0.05,22.95,0)" xlink:href="#ah"/><use transform="matrix(0.05,0,0,0.05,32.95,0)" xlink:href="#ak"/></g><g id="r"><use transform="matrix(0.05,0,0,0.05,0,0)" xlink:href="#ai"/><use transform="matrix(0.05,0,0,0.05,5,0)" xlink:href="#ah"/></g><g id="s"><use transform="matrix(0.05,0,0,0.05,0,0)" xlink:href="#ar"/><use transform="matrix(0.05,0,0,0.05,3.95,0)" xlink:href="#as"/><use transform="matrix(0.05,0,0,0.05,13.949999999999998,0)" xlink:href="#aq"/><use transform="matrix(0.05,0,0,0.05,23.95,0)" xlink:href="#ar"/><use transform="matrix(0.05,0,0,0.05,27.899999999999995,0)" xlink:href="#ap"/><use transform="matrix(0.05,0,0,0.05,36.9,0)" xlink:href="#ax"/><use transform="matrix(0.05,0,0,0.05,46.9,0)" xlink:href="#ai"/><use transform="matrix(0.05,0,0,0.05,51.900000000000006,0)" xlink:href="#aj"/></g><path fill="#666" d="M106-169C34-169 62-67 57 0H25v-261h32l-1 103c12-21 28-36 61-36 89 0 53 116 60 194h-32v-121c2-32-8-49-39-48" id="az"/><g id="t"><use transform="matrix(0.05,0,0,0.05,0,0)" xlink:href="#ai"/><use transform="matrix(0.05,0,0,0.05,5,0)" xlink:href="#az"/><use transform="matrix(0.05,0,0,0.05,15,0)" xlink:href="#ax"/><use transform="matrix(0.05,0,0,0.05,25,0)" xlink:href="#ai"/></g><g id="u"><use transform="matrix(0.05,0,0,0.05,0,0)" xlink:href="#ar"/><use transform="matrix(0.05,0,0,0.05,3.95,0)" xlink:href="#ai"/></g><g id="v"><use transform="matrix(0.05,0,0,0.05,0,0)" xlink:href="#au"/><use transform="matrix(0.05,0,0,0.05,9,0)" xlink:href="#aj"/><use transform="matrix(0.05,0,0,0.05,19,0)" xlink:href="#ao"/><use transform="matrix(0.05,0,0,0.05,22.95,0)" xlink:href="#aj"/><use transform="matrix(0.05,0,0,0.05,32.95,0)" xlink:href="#ap"/><use transform="matrix(0.05,0,0,0.05,41.95,0)" xlink:href="#ai"/><use transform="matrix(0.05,0,0,0.05,46.95,0)" xlink:href="#aj"/><use transform="matrix(0.05,0,0,0.05,56.95,0)" xlink:href="#aq"/></g><path fill="#666" d="M210-169c-67 3-38 105-44 169h-31v-121c0-29-5-50-35-48C34-165 62-65 56 0H25l-1-190h30c1 10-1 24 2 32 10-44 99-50 107 0 11-21 27-35 58-36 85-2 47 119 55 194h-31v-121c0-29-5-49-35-48" id="aA"/><path fill="#666" d="M179-190L93 31C79 59 56 82 12 73V49c39 6 53-20 64-50L1-190h34L92-34l54-156h33" id="aB"/><g id="w"><use transform="matrix(0.05,0,0,0.05,0,0)" xlink:href="#ag"/><use transform="matrix(0.05,0,0,0.05,10.950000000000001,0)" xlink:href="#ax"/><use transform="matrix(0.05,0,0,0.05,20.950000000000003,0)" xlink:href="#aA"/><use transform="matrix(0.05,0,0,0.05,35.900000000000006,0)" xlink:href="#ar"/><use transform="matrix(0.05,0,0,0.05,39.85000000000001,0)" xlink:href="#ao"/><use transform="matrix(0.05,0,0,0.05,43.80000000000001,0)" xlink:href="#aB"/></g><path fill="#666" d="M197 0v-115H63V0H30v-248h33v105h134v-105h34V0h-34" id="aC"/><path fill="#666" d="M177-190C167-65 218 103 67 71c-23-6-38-20-44-43l32-5c15 47 100 32 89-28v-30C133-14 115 1 83 1 29 1 15-40 15-95c0-56 16-97 71-98 29-1 48 16 59 35 1-10 0-23 2-32h30zM94-22c36 0 50-32 50-73 0-42-14-75-50-75-39 0-46 34-46 75s6 73 46 73" id="aD"/><g id="x"><use transform="matrix(0.05,0,0,0.05,0,0)" xlink:href="#aC"/><use transform="matrix(0.05,0,0,0.05,12.950000000000001,0)" xlink:href="#aj"/><use transform="matrix(0.05,0,0,0.05,22.950000000000003,0)" xlink:href="#ak"/><use transform="matrix(0.05,0,0,0.05,28.900000000000002,0)" xlink:href="#ar"/><use transform="matrix(0.05,0,0,0.05,32.85,0)" xlink:href="#ai"/><use transform="matrix(0.05,0,0,0.05,37.85,0)" xlink:href="#ax"/><use transform="matrix(0.05,0,0,0.05,47.85,0)" xlink:href="#aD"/><use transform="matrix(0.05,0,0,0.05,57.85,0)" xlink:href="#aj"/></g><path fill="#666" d="M30-248c118-7 216 8 213 122C240-48 200 0 122 0H30v-248zM63-27c89 8 146-16 146-99s-60-101-146-95v194" id="aE"/><path fill="#666" d="M108 0H70L1-190h34L89-25l56-165h34" id="aF"/><g id="y"><use transform="matrix(0.05,0,0,0.05,0,0)" xlink:href="#aE"/><use transform="matrix(0.05,0,0,0.05,12.950000000000001,0)" xlink:href="#ar"/><use transform="matrix(0.05,0,0,0.05,16.900000000000002,0)" xlink:href="#au"/><use transform="matrix(0.05,0,0,0.05,25.900000000000002,0)" xlink:href="#ap"/><use transform="matrix(0.05,0,0,0.05,34.900000000000006,0)" xlink:href="#ah"/><use transform="matrix(0.05,0,0,0.05,44.900000000000006,0)" xlink:href="#aF"/><use transform="matrix(0.05,0,0,0.05,53.900000000000006,0)" xlink:href="#aj"/><use transform="matrix(0.05,0,0,0.05,63.900000000000006,0)" xlink:href="#ak"/><use transform="matrix(0.05,0,0,0.05,69.85000000000001,0)" xlink:href="#aB"/></g><path fill="#666" d="M205 0l-28-72H64L36 0H1l101-248h38L239 0h-34zm-38-99l-47-123c-12 45-31 82-46 123h93" id="aG"/><g id="z"><use transform="matrix(0.05,0,0,0.05,0,0)" xlink:href="#aG"/><use transform="matrix(0.05,0,0,0.05,12,0)" xlink:href="#ak"/><use transform="matrix(0.05,0,0,0.05,17.95,0)" xlink:href="#ai"/><use transform="matrix(0.05,0,0,0.05,22.95,0)" xlink:href="#ar"/><use transform="matrix(0.05,0,0,0.05,26.899999999999995,0)" xlink:href="#ap"/><use transform="matrix(0.05,0,0,0.05,35.9,0)" xlink:href="#ao"/><use transform="matrix(0.05,0,0,0.05,39.85,0)" xlink:href="#aj"/></g><path fill="#666" d="M27 0v-27h64v-190l-56 39v-29l58-41h29v221h61V0H27" id="aH"/><use transform="matrix(0.05,0,0,0.05,0,0)" xlink:href="#aH" id="A"/><g id="B"><use transform="matrix(0.05,0,0,0.05,0,0)" xlink:href="#al"/><use transform="matrix(0.05,0,0,0.05,10.3,0)" xlink:href="#ar"/><use transform="matrix(0.05,0,0,0.05,14.25,0)" xlink:href="#ai"/><use transform="matrix(0.05,0,0,0.05,19.25,0)" xlink:href="#ao"/><use transform="matrix(0.05,0,0,0.05,23.2,0)" xlink:href="#aj"/></g><g id="C"><use transform="matrix(0.03703703703703704,0,0,0.03703703703703704,0,0)" xlink:href="#aG"/><use transform="matrix(0.03703703703703704,0,0,0.03703703703703704,8.88888888888889,0)" xlink:href="#aw"/><use transform="matrix(0.03703703703703704,0,0,0.03703703703703704,16.296296296296298,0)" xlink:href="#ai"/><use transform="matrix(0.03703703703703704,0,0,0.03703703703703704,20,0)" xlink:href="#az"/><use transform="matrix(0.03703703703703704,0,0,0.03703703703703704,27.40740740740741,0)" xlink:href="#ah"/><use transform="matrix(0.03703703703703704,0,0,0.03703703703703704,34.81481481481482,0)" xlink:href="#ak"/></g><path fill="#666" d="M33 0v-248h34V0H33" id="aI"/><g id="D"><use transform="matrix(0.03703703703703704,0,0,0.03703703703703704,0,0)" xlink:href="#aI"/><use transform="matrix(0.03703703703703704,0,0,0.03703703703703704,3.703703703703704,0)" xlink:href="#as"/><use transform="matrix(0.03703703703703704,0,0,0.03703703703703704,11.111111111111112,0)" xlink:href="#ay"/><use transform="matrix(0.03703703703703704,0,0,0.03703703703703704,14.814814814814817,0)" xlink:href="#ah"/></g><g id="E"><use transform="matrix(0.05,0,0,0.05,0,0)" xlink:href="#al"/><use transform="matrix(0.05,0,0,0.05,8.950000000000001,0)" xlink:href="#aj"/><use transform="matrix(0.05,0,0,0.05,18.950000000000003,0)" xlink:href="#am"/><use transform="matrix(0.05,0,0,0.05,27.950000000000003,0)" xlink:href="#ai"/></g><path fill="#666" d="M24-231v-30h32v30H24zM-9 49c24 4 33-6 33-30v-209h32V24c2 40-23 58-65 49V49" id="aJ"/><g id="F"><use transform="matrix(0.05,0,0,0.05,0,0)" xlink:href="#an"/><use transform="matrix(0.05,0,0,0.05,12,0)" xlink:href="#aw"/><use transform="matrix(0.05,0,0,0.05,22,0)" xlink:href="#av"/><use transform="matrix(0.05,0,0,0.05,32,0)" xlink:href="#aJ"/><use transform="matrix(0.05,0,0,0.05,35.95,0)" xlink:href="#aj"/><use transform="matrix(0.05,0,0,0.05,45.95,0)" xlink:href="#ap"/><use transform="matrix(0.05,0,0,0.05,54.95,0)" xlink:href="#ai"/></g><g id="G"><use transform="matrix(0.05,0,0,0.05,0,0)" xlink:href="#al"/><use transform="matrix(0.05,0,0,0.05,8.950000000000001,0)" xlink:href="#ax"/><use transform="matrix(0.05,0,0,0.05,18.950000000000003,0)" xlink:href="#aD"/><use transform="matrix(0.05,0,0,0.05,28.950000000000003,0)" xlink:href="#au"/></g><path fill="#666" d="M101-251c82-7 93 87 43 132L82-64C71-53 59-42 53-27h129V0H18c2-99 128-94 128-182 0-28-16-43-45-43s-46 15-49 41l-32-3c6-41 34-60 81-64" id="aK"/><use transform="matrix(0.05,0,0,0.05,0,0)" xlink:href="#aK" id="H"/><g id="I"><use transform="matrix(0.05,0,0,0.05,0,0)" xlink:href="#aI"/><use transform="matrix(0.05,0,0,0.05,5,0)" xlink:href="#aA"/><use transform="matrix(0.05,0,0,0.05,19.950000000000003,0)" xlink:href="#ax"/><use transform="matrix(0.05,0,0,0.05,29.950000000000003,0)" xlink:href="#aD"/><use transform="matrix(0.05,0,0,0.05,39.95,0)" xlink:href="#aj"/></g></defs></g></svg>